<svg id="Layer_1" data-name="Layer 1" xmlns="http://www.w3.org/2000/svg" xmlns:xlink="http://www.w3.org/1999/xlink" viewBox="0 0 807.38231 559.8565"><defs><clipPath id="clip-path" transform="translate(-291.94189 -161.7734)"><path d="M695.63328,400.9629a36.5874,36.5874,0,1,1-36.5889,36.5884A36.58772,36.58772,0,0,1,695.63328,400.9629Z" fill="none" clip-rule="evenodd"/></clipPath><clipPath id="clip-path-2" transform="translate(-291.94189 -161.7734)"><path d="M632.56148,469.6758h0a25.27023,25.27023,0,0,1,25.1953,25.1953v96.6806h-50.3906V494.8711A25.26868,25.26868,0,0,1,632.56148,469.6758Z" fill="none" clip-rule="evenodd"/></clipPath><clipPath id="clip-path-3" transform="translate(-291.94189 -161.7734)"><path d="M760.68848,469.6758h0a25.27127,25.27127,0,0,1,25.1953,25.1953v96.6806h-50.3906V494.8711A25.26933,25.26933,0,0,1,760.68848,469.6758Z" fill="none" clip-rule="evenodd"/></clipPath><clipPath id="clip-path-4" transform="translate(-291.94189 -161.7734)"><path d="M513.88869,558.9053h0a14.71657,14.71657,0,0,1,14.6728,14.6728v56.3076h-29.3457V573.5781A14.71633,14.71633,0,0,1,513.88869,558.9053Z" fill="none" clip-rule="evenodd"/></clipPath><clipPath id="clip-path-5" transform="translate(-291.94189 -161.7734)"><path d="M877.376,558.9053h0a14.71836,14.71836,0,0,1,14.67668,14.6728v56.3076h-29.3496V573.5781A14.71757,14.71757,0,0,1,877.376,558.9053Z" fill="none" clip-rule="evenodd"/></clipPath></defs><title>footer-img</title><path d="M695.75288,161.7734c-117.58588,0-101.2734,146.0435-189.80319,251.919C427.23489,507.8349,320.897,581.1592,320.897,718.5049h749.4721c0-137.3457-106.33592-210.67-185.05462-304.8125C796.78908,307.8169,813.34178,161.7734,695.75288,161.7734Z" transform="translate(-291.94189 -161.7734)" fill="#969" fill-rule="evenodd"/><path d="M695.63328,401.6709c-173.27928,0-313.752,160.3633-313.752,316.834H1009.3828C1009.3828,562.0342,868.91208,401.6709,695.63328,401.6709Z" transform="translate(-291.94189 -161.7734)" fill="#c9c" fill-rule="evenodd"/><path d="M409.35159,559.54c-1.1109-27.7138-12.4248-49.4951-26.2207-49.4951s-25.1104,21.7813-26.2188,49.4951c-11.8818,9.086-19.6577,31.625-19.6577,54.0449,0,22.4161,20.5405,37.4629,45.8765,37.4629,25.3378,0,45.8759-15.0468,45.8759-37.4629C429.00679,591.165,421.23289,568.626,409.35159,559.54Z" transform="translate(-291.94189 -161.7734)" fill="#3c6" fill-rule="evenodd"/><path d="M412.397,557.9941c-.72811-13.8144-3.93461-26.164-8.69971-35.1562-5.2325-9.8799-12.4449-15.918-20.5664-15.918-8.1202,0-15.3321,6.0381-20.56689,15.918-4.76521,8.9922-7.96931,21.3418-8.69781,35.1562-5.833,4.9444-10.6406,12.8057-14.0361,22.1436a99.89248,99.89248,0,0,0-5.7007,33.4472,36.92862,36.92862,0,0,0,14.1035,29.1543c8.20511,6.7022,19.3804,10.7754,31.7769,11.3614v64.4043h6.25V654.1006c12.3964-.586,23.5678-4.6592,31.771-11.3614a36.92638,36.92638,0,0,0,14.101-29.1543,99.83232,99.83232,0,0,0-5.7006-33.4472C423.03759,570.7949,418.228,562.9385,412.397,557.9941Zm1.70309,79.9151c-7.1147,5.8105-16.8945,9.3632-27.8403,9.9326V625.5889l24.4526-26.7579-4.5898-4.1992-19.8628,21.7364V586.6074h-6.25v61.2344c-10.94779-.5694-20.7295-4.1221-27.8462-9.9326a30.82637,30.82637,0,0,1-11.7818-24.3243,93.55546,93.55546,0,0,1,5.3057-31.3232c3.2246-8.8662,7.7412-16.1338,13.1167-20.2432l1.1616-.8867.0567-1.4697c.5371-13.4356,3.5361-25.3867,8.0566-33.9189,4.1367-7.8047,9.4365-12.5733,15.0518-12.5733,5.61711,0,10.917,4.7686,15.0512,12.5733,4.5225,8.5322,7.5196,20.4833,8.0567,33.9189l.0591,1.4697,1.1616.8867c5.375,4.1094,9.8896,11.3731,13.1142,20.2432a93.50532,93.50532,0,0,1,5.3081,31.3232A30.82778,30.82778,0,0,1,414.10009,637.9092Z" transform="translate(-291.94189 -161.7734)" fill="#45054f" fill-rule="evenodd"/><path d="M1034.3545,559.54c-1.1113-27.7138-12.4229-49.4951-26.2207-49.4951-13.794,0-25.11042,21.7813-26.22072,49.4951-11.8818,9.086-19.6533,31.625-19.6533,54.0449,0,22.4161,20.5361,37.4629,45.874,37.4629s45.874-15.0468,45.874-37.4629C1054.0078,591.165,1046.2363,568.626,1034.3545,559.54Z" transform="translate(-291.94189 -161.7734)" fill="#3c6" fill-rule="evenodd"/><path d="M1037.3984,557.9941c-.7285-13.8144-3.9316-26.164-8.6963-35.1562-5.2363-9.8799-12.4462-15.918-20.5683-15.918s-15.332,6.0381-20.56932,15.918c-4.7608,8.9922-7.9668,21.3418-8.6954,35.1562-5.831,4.9444-10.6406,12.8057-14.038,22.1436a99.87984,99.87984,0,0,0-5.7002,33.4472,36.92921,36.92921,0,0,0,14.1025,29.1543c8.208,6.7022,19.38089,10.7754,31.77932,11.3614v64.4043h6.25V654.1006c12.3945-.586,23.5674-4.6592,31.7705-11.3614a36.92363,36.92363,0,0,0,14.0996-29.1543,99.87925,99.87925,0,0,0-5.6973-33.4472C1048.0381,570.7949,1043.2285,562.9385,1037.3984,557.9941Zm1.7041,79.9151c-7.1162,5.8105-16.8945,9.3632-27.8398,9.9326V625.5889l24.4551-26.7579-4.5948-4.1992-19.8603,21.7364V586.6074h-6.25v61.2344c-10.95023-.5694-20.73142-4.1221-27.84862-9.9326a30.82688,30.82688,0,0,1-11.7793-24.3243,93.49526,93.49526,0,0,1,5.3056-31.3232c3.22662-8.8662,7.7393-16.1338,13.1143-20.2432l1.1641-.8867.0566-1.4697c.5371-13.4356,3.5361-25.3867,8.05662-33.9189,4.13477-7.8047,9.4366-12.5733,15.0518-12.5733s10.917,4.7686,15.0508,12.5733c4.5205,8.5322,7.5195,20.4833,8.0566,33.9189l.0576,1.4697,1.1631.8867c5.376,4.1094,9.8916,11.3731,13.1143,20.2432a93.49537,93.49537,0,0,1,5.3066,31.3232A30.825,30.825,0,0,1,1039.1025,637.9092Z" transform="translate(-291.94189 -161.7734)" fill="#45054f" fill-rule="evenodd"/><path d="M817.11718,458.9155V421.1406c-9.0078-1.9531-10.5059-7.7798-11.9219-14.8193-12.5039-62.085-70.8701-39.8638-92.1348-80.0498L701.70208,308.25h2.6592a7.24042,7.24042,0,0,0,7.2188-7.2202v-.0025a7.24042,7.24042,0,0,0-7.2188-7.2202h-17.456a7.23849,7.23849,0,0,0-7.2188,7.2202v.0025a7.23849,7.23849,0,0,0,7.2188,7.2202h2.6592l-11.3609,18.0215c-21.2627,40.186-79.6284,17.9648-92.13279,80.0498-1.418,7.0395-2.9116,12.8662-11.9224,14.8193v37.7749c-61.2671,0-46.3603,88.2788-120.518,88.2788V718.5049H937.63378V547.1943C863.47658,547.1943,878.38478,458.9155,817.11718,458.9155Z" transform="translate(-291.94189 -161.7734)" fill="#aa8a75" fill-rule="evenodd"/><path d="M695.63328,400.9629a36.5874,36.5874,0,1,0,36.5884,36.5884A36.58782,36.58782,0,0,0,695.63328,400.9629Z" transform="translate(-291.94189 -161.7734)" fill="#9cc" fill-rule="evenodd"/><g clip-path="url(#clip-path)"><path d="M667.02,460.352a36.7898,36.7898,0,0,0,9.96288,8.6792l55.1978-29.8159c.0244-.5513.041-1.1069.041-1.664a36.50038,36.50038,0,0,0-1.8272-11.4341Z" transform="translate(-291.94189 -161.7734)" fill="#fff" fill-rule="evenodd"/><path d="M718.875,409.2939,659.25828,441.498a36.35525,36.35525,0,0,0,5.54,15.7574l64.2212-34.6905A36.70125,36.70125,0,0,0,718.875,409.2939Z" transform="translate(-291.94189 -161.7734)" fill="#fff" fill-rule="evenodd"/></g><path d="M632.56148,469.6758a25.26868,25.26868,0,0,0-25.1953,25.1953v96.6806h50.3906V494.8711A25.27023,25.27023,0,0,0,632.56148,469.6758Z" transform="translate(-291.94189 -161.7734)" fill="#9cc" fill-rule="evenodd"/><g clip-path="url(#clip-path-2)"><polygon points="315.424 408.407 365.815 383.781 365.815 371.677 315.424 396.302 315.424 408.407" fill="#fff" fill-rule="evenodd"/><polygon points="315.424 389.657 365.815 365.031 365.815 336.906 315.424 361.532 315.424 389.657" fill="#fff" fill-rule="evenodd"/></g><rect x="317.68849" y="546.1319" width="169.145" height="10.5996" fill="#aa8a75"/><rect x="381.42329" y="480.3555" width="44.5332" height="65.7764" fill="#c30"/><rect x="199.68111" y="490.9551" width="44.52929" height="65.7764" fill="#c30"/><rect x="563.16849" y="490.9551" width="44.5312" height="65.7764" fill="#c30"/><rect y="553.6065" width="807.38231" height="6.25" fill="#45054f"/><path d="M1035.9004,669.957H960.80268a5.8497,5.8497,0,0,0-5.8349,5.8311v8.8984a2.93,2.93,0,0,0,2.9218,2.9219h80.92492a2.92982,2.92982,0,0,0,2.9209-2.9219v-8.8984A5.84914,5.84914,0,0,0,1035.9004,669.957Z" transform="translate(-291.94189 -161.7734)" fill="#c30" fill-rule="evenodd"/><path d="M1036.2988,696.3281H960.14748a5.3081,5.3081,0,0,0,0,10.6162h76.15132a5.3081,5.3081,0,1,0,0-10.6162Z" transform="translate(-291.94189 -161.7734)" fill="#c30" fill-rule="evenodd"/><path d="M430.59179,669.957h-75.0996a5.84736,5.84736,0,0,0-5.833,5.8311v8.8984a2.92789,2.92789,0,0,0,2.9194,2.9219h80.9243a2.93,2.93,0,0,0,2.9219-2.9219v-8.8984A5.8493,5.8493,0,0,0,430.59179,669.957Z" transform="translate(-291.94189 -161.7734)" fill="#c30" fill-rule="evenodd"/><path d="M430.99019,696.3281h-76.1533a5.3081,5.3081,0,0,0,0,10.6162h76.1533a5.3081,5.3081,0,0,0,0-10.6162Z" transform="translate(-291.94189 -161.7734)" fill="#c30" fill-rule="evenodd"/><path d="M430.59179,666.832h-75.0996a9.0028,9.0028,0,0,0-8.9605,8.9561v8.8984a6.05684,6.05684,0,0,0,6.0469,6.0469h11.4072v2.4697h-9.1489a8.41868,8.41868,0,0,0-5.957,14.3799l.0122.0127a8.40309,8.40309,0,0,0,5.9448,2.4736h9.1489v8.4395h6.25v-8.4395h45.3863v8.4395h6.25v-8.4395h9.1181a8.41727,8.41727,0,0,0,5.9551-14.3799l-.0098-.0127a8.41923,8.41923,0,0,0-5.9453-2.4736h-9.1181v-2.4697h11.6308a6.05667,6.05667,0,0,0,6.0469-6.0469v-8.8984a8.97913,8.97913,0,0,0-8.958-8.9561Zm.3984,32.6211a2.15215,2.15215,0,0,1,1.5381.6309l.01271.0127a2.1851,2.1851,0,0,1-1.55081,3.7187h-76.1533a2.19517,2.19517,0,0,1-1.54-.6269l-.0127-.0118a2.20172,2.20172,0,0,1-.6284-1.5429,2.19324,2.19324,0,0,1,2.1811-2.1807Zm-60.7544-6.25v-2.4697h45.3863v2.4697Zm63.064-8.7197h-80.5156v-8.6953a2.64906,2.64906,0,0,1,.7973-1.9082,2.69355,2.69355,0,0,1,1.9107-.7979h75.0996a2.7242,2.7242,0,0,1,2.708,2.7061Z" transform="translate(-291.94189 -161.7734)" fill="#45054f" fill-rule="evenodd"/><path d="M760.68848,469.6758a25.26933,25.26933,0,0,0-25.1953,25.1953v96.6806h50.3906V494.8711A25.27127,25.27127,0,0,0,760.68848,469.6758Z" transform="translate(-291.94189 -161.7734)" fill="#9cc" fill-rule="evenodd"/><g clip-path="url(#clip-path-3)"><polygon points="443.551 389.657 493.942 365.031 493.942 336.906 443.551 361.532 443.551 389.657" fill="#fff" fill-rule="evenodd"/><polygon points="443.551 408.407 493.942 383.781 493.942 371.677 443.551 396.302 443.551 408.407" fill="#fff" fill-rule="evenodd"/></g><path d="M513.88869,558.9053a14.71633,14.71633,0,0,0-14.6729,14.6728v56.3076h29.3457V573.5781A14.71657,14.71657,0,0,0,513.88869,558.9053Z" transform="translate(-291.94189 -161.7734)" fill="#9cc" fill-rule="evenodd"/><g clip-path="url(#clip-path-4)"><polygon points="207.274 455.665 236.62 441.325 236.62 434.271 207.274 448.613 207.274 455.665" fill="#fff" fill-rule="evenodd"/><polygon points="207.274 444.747 236.62 430.404 236.62 414.023 207.274 428.366 207.274 444.747" fill="#fff" fill-rule="evenodd"/></g><path d="M877.376,558.9053a14.71757,14.71757,0,0,0-14.67292,14.6728v56.3076h29.3496V573.5781A14.71836,14.71836,0,0,0,877.376,558.9053Z" transform="translate(-291.94189 -161.7734)" fill="#9cc" fill-rule="evenodd"/><g clip-path="url(#clip-path-5)"><polygon points="570.761 455.665 600.111 441.325 600.111 434.271 570.761 448.613 570.761 455.665" fill="#fff" fill-rule="evenodd"/><polygon points="570.761 444.747 600.111 430.404 600.111 414.023 570.761 428.366 570.761 444.747" fill="#fff" fill-rule="evenodd"/></g><path d="M532.28859,346.0371h-43.8618a7.3711,7.3711,0,1,0,0-14.7422h-44.2325a7.3711,7.3711,0,1,0,0,14.7422h17.9546a5.003,5.003,0,1,1,0,10.0059h-51.4448a7.3718,7.3718,0,0,0,0,14.7436h36.4995a5.002,5.002,0,1,1,0,10.0039h-9.7944a5.0027,5.0027,0,1,0,0,10.0054h59.9223a5.0027,5.0027,0,1,0,0-10.0054h28.4263a5.002,5.002,0,1,0,0-10.0039h-30.2773a7.3718,7.3718,0,0,1,0-14.7436h36.8081a5.003,5.003,0,0,0,0-10.0059Z" transform="translate(-291.94189 -161.7734)" fill="#969" fill-rule="evenodd"/><path d="M1029.1826,426.4184H974.21a7.37205,7.37205,0,1,1,0-14.7441h48.4423a5.01523,5.01523,0,0,0,5-5.001v-.0019a5.0148,5.0148,0,0,0-5-5.0005h-82.04a5.015,5.015,0,0,0-5.001,5.0005v.0019a5.01544,5.01544,0,0,0,5.001,5.001h-16.7969a7.37205,7.37205,0,1,0,0,14.7441h30.9649a5.01836,5.01836,0,0,1,5.0049,5.0005v.002a5.01846,5.01846,0,0,1-5.0049,5.001h-13.6914a7.37205,7.37205,0,1,0,0,14.7441H913.126a5.003,5.003,0,0,0,0,10.0059h82.04a5.003,5.003,0,0,0,0-10.0059H981.52638a7.37205,7.37205,0,1,1,0-14.7441h47.65622a5.01512,5.01512,0,0,0,5.001-5.001v-.002A5.015,5.015,0,0,0,1029.1826,426.4184Z" transform="translate(-291.94189 -161.7734)" fill="#969" fill-rule="evenodd"/><path d="M1035.9004,666.832H960.80268a9.00263,9.00263,0,0,0-8.9599,8.9561v8.8984a6.05667,6.05667,0,0,0,6.0468,6.0469h11.4092v2.4697h-9.1513a8.419,8.419,0,0,0-5.9571,14.3799l.0127.0127a8.4064,8.4064,0,0,0,5.9444,2.4736h9.1513v8.4395h6.25v-8.4395h45.38192v8.4395h6.2539v-8.4395h9.1142a8.40885,8.40885,0,0,0,5.9492-2.4736l.0127-.0127a8.42675,8.42675,0,0,0-5.9619-14.3799h-9.1142v-2.4697h11.6299a6.05685,6.05685,0,0,0,6.0459-6.0469v-8.8984a8.97414,8.97414,0,0,0-8.96-8.9561Zm.3984,32.6211a2.19581,2.19581,0,0,1,2.1856,2.1807,2.20212,2.20212,0,0,1-.6309,1.5429l-.0117.0118a2.19879,2.19879,0,0,1-1.543.6269H960.14748a2.19581,2.19581,0,0,1-1.5381-.6269l-.0117-.0118a2.20169,2.20169,0,0,1-.6309-1.5429,2.19586,2.19586,0,0,1,2.1807-2.1807Zm-60.75-6.25v-2.4697h45.38192v2.4697Zm63.06162-8.7197H958.09278v-8.6953a2.64745,2.64745,0,0,1,.7978-1.9082,2.69858,2.69858,0,0,1,1.9121-.7979h75.09772a2.74241,2.74241,0,0,1,1.9248.7979,2.6882,2.6882,0,0,1,.7852,1.9082Z" transform="translate(-291.94189 -161.7734)" fill="#45054f" fill-rule="evenodd"/><rect x="225.07179" y="453.0567" width="8.4228" height="11.9306" fill="#45054f"/><rect x="210.39889" y="437.1592" width="8.4229" height="9.6475" fill="#45054f"/><rect x="202.80611" y="494.0801" width="38.28129" height="59.5264" fill="#45054f"/><rect x="210.39889" y="416.0655" width="8.4229" height="14.8437" fill="#45054f"/><rect x="210.39889" y="453.0567" width="8.4229" height="11.9306" fill="#45054f"/><path d="M522.04879,565.4199a11.55156,11.55156,0,0,0-19.5351,6.169h22.7519A11.585,11.585,0,0,0,522.04879,565.4199Z" transform="translate(-291.94189 -161.7734)" fill="#45054f" fill-rule="evenodd"/><polygon points="248.717 500.847 270.055 500.847 270.055 507.097 266.337 507.097 266.337 513.587 279.081 513.587 279.081 494.357 248.717 494.357 248.717 500.847" fill="#45054f" fill-rule="evenodd"/><rect x="225.07179" y="437.1592" width="8.4228" height="9.6475" fill="#45054f"/><polygon points="255.986 513.587 260.087 513.587 260.087 507.097 247.337 507.097 247.337 553.606 279.081 553.606 279.081 519.841 255.986 519.841 255.986 513.587" fill="#45054f" fill-rule="evenodd"/><path d="M780.67968,474.8682a28.20239,28.20239,0,0,0-39.9981,0v.0122a28.24079,28.24079,0,0,0-8.3134,19.9907v99.8056h56.6406V494.8711a28.22385,28.22385,0,0,0-8.3174-19.9907Zm-23.1162,113.5585h-18.9453V575.7314h18.9453Zm0-18.9453h-18.9453V556.7861h18.9453Zm0-18.9453h-18.9453V537.8398h18.9453Zm0-18.9463h-18.9453V518.8945h18.9453Zm0-18.9453h-18.9453V499.9453h18.9453Zm25.1953,75.7822h-18.9453V575.7314h18.9453Zm0-18.9453h-18.9453V556.7861h18.9453Zm0-18.9453h-18.9453V537.8398h18.9453Zm0-18.9463h-18.9453V518.8945h18.9453Zm0-18.9453h-18.9453V499.9453h18.9453Zm-44.1123-18.9492a22.07332,22.07332,0,0,1,44.0801,0Z" transform="translate(-291.94189 -161.7734)" fill="#45054f" fill-rule="evenodd"/><path d="M703.11618,530.6377c.1377-.2315.2725-.4678.4024-.7119a37.82829,37.82829,0,0,0,3.748-11.7842,13.4006,13.4006,0,0,0,1.335-2.9824A13.57558,13.57558,0,1,0,684,518.1416a37.7645,37.7645,0,0,0,3.74758,11.7842c.1323.2441.2661.4804.4047.7119h-22.2758v16.4961h4.415v7.125c0,5.7617,3.2349,11.2832,7.41752,15.8242,6.15868,6.6855,14.88478,11.4102,17.92428,11.4102s11.7671-4.7247,17.9233-11.4063c4.1836-4.541,7.418-10.0625,7.418-15.8281v-7.125h4.415V530.6377h-22.2734Zm-12.6631-24.6455a7.33292,7.33292,0,0,1,11.249,9.3056l-.5126,1.3555a31.32843,31.32843,0,0,1-3.1392,10.294c-.9258,1.705-1.811,2.8769-2.417,2.8769-.6064,0-1.4917-1.1719-2.417-2.8769a31.37554,31.37554,0,0,1-3.1411-10.294l-.5107-1.3555a7.36223,7.36223,0,0,1,.8886-9.3056Zm24.2715,48.2666c0,3.9668-2.5098,8.081-5.7578,11.6045-5.0654,5.4931-11.4111,9.3799-13.3335,9.3799-1.9229,0-8.2705-3.8868-13.3345-9.3838-3.247-3.5235-5.7573-7.6338-5.7573-11.6006v-7.125h38.1831Zm0-13.375h-38.1831v-3.9961h38.1831Z" transform="translate(-291.94189 -161.7734)" fill="#45054f" fill-rule="evenodd"/><path d="M801.334,408.2339l-.22362-1.1148.0117-.0019c-6.6768-33.1324-27.6485-40.6964-48.1485-48.0899-16.9638-6.1157-33.6425-12.1318-43.5224-30.6948l-10.0318-15.9155h-7.5727l-10.0318,15.9155c-9.8837,18.563-26.5586,24.5791-43.52,30.6948-20.50188,7.3935-41.4736,14.9575-48.15329,48.0899l.0147.0019-.2198,1.1148c-1.2573,6.5024-2.643,13.605-12.6631,16.1421v21.8462h14.0137v-6.4878h-7.8613v-6.252H607.061v-6.4922h-9.76612v-6.25h27.3867v-8.0058h6.25v8.0058h15.8692v6.25H613.311v6.4922h21.33788v6.252h-3.7173v6.4878h15.8692v6.2519h-26.2207v-6.2519h4.1015v-6.4878h-27.1425v6.4878h11.7168v6.2519H577.27339V715.3799h29.232V704.7803h16.8598V645.2539h-16.0195V625.918h2.4292l85.856-42.1348,1.3696.6719,84.4888,41.4629h2.4296v19.3359h-16.0205v59.5264h14.002v10.5996h32.0918V424.376C803.97068,421.8389,802.58688,414.7363,801.334,408.2339Zm-133.78322,1.2348a39.71357,39.71357,0,1,1-11.6314,28.0826A39.595,39.595,0,0,1,667.55078,409.4687Zm-6.669,185.208h-56.6406V494.8711a28.23342,28.23342,0,0,1,8.315-19.9907v-.0122a28.20047,28.20047,0,0,1,39.9965,0l.0118.0122a28.22585,28.22585,0,0,1,8.3173,19.9907Zm64.5078-47.5429h-4.415v7.125c0,5.7656-3.2344,11.2871-7.418,15.8281-6.1562,6.6816-14.8837,11.4063-17.9233,11.4063s-11.7656-4.7247-17.92428-11.4102c-4.18262-4.541-7.41752-10.0625-7.41752-15.8242v-7.125h-4.415V530.6377h22.2758c-.1386-.2315-.2724-.4678-.4047-.7119A37.7645,37.7645,0,0,1,684,518.1416a13.57558,13.57558,0,1,1,23.26658,0,37.82829,37.82829,0,0,1-3.748,11.7842c-.1299.2441-.2647.4804-.4024.7119h22.2734Zm63.6192,47.5429h-56.6406V494.8711a28.24079,28.24079,0,0,1,8.3134-19.9907v-.0122a28.20239,28.20239,0,0,1,39.9981,0l.0117.0122a28.22385,28.22385,0,0,1,8.3174,19.9907Z" transform="translate(-291.94189 -161.7734)" fill="#45054f" fill-rule="evenodd"/><rect x="225.07179" y="416.0655" width="8.4228" height="14.8437" fill="#45054f"/><path d="M652.55268,474.8682a28.20047,28.20047,0,0,0-39.9965,0v.0122a28.23342,28.23342,0,0,0-8.315,19.9907v99.8056h56.6406V494.8711a28.22585,28.22585,0,0,0-8.3173-19.9907Zm-23.1162,113.5585h-18.9453V575.7314h18.9453Zm0-18.9453h-18.9453V556.7861h18.9453Zm0-18.9453h-18.9453V537.8398h18.9453Zm0-18.9463h-18.9453V518.8945h18.9453Zm0-18.9453h-18.9453V499.9453h18.9453Zm25.1953,75.7822h-18.9453V575.7314h18.9453Zm0-18.9453h-18.9453V556.7861h18.9453Zm0-18.9453h-18.9453V537.8398h18.9453Zm0-18.9463h-18.9453V518.8945h18.9453Zm0-18.9453h-18.9453V499.9453h18.9453Zm-44.1103-18.9492a22.07306,22.07306,0,0,1,44.0796,0Z" transform="translate(-291.94189 -161.7734)" fill="#45054f" fill-rule="evenodd"/><path d="M695.63328,477.2646a39.71533,39.71533,0,1,0-28.0825-11.6333A39.59083,39.59083,0,0,0,695.63328,477.2646Zm30.4155-53.6826a33.535,33.535,0,0,1,0,27.938l-11.1123-6.4165a20.848,20.848,0,0,0,0-15.1045Zm-27.2905-19.3501a33.48754,33.48754,0,0,1,24.1743,13.9629l-11.1133,6.419a21.29079,21.29079,0,0,0-1.5341-1.7154,20.6641,20.6641,0,0,0-11.5269-5.8349Zm11.3442,33.3194a14.52664,14.52664,0,0,1-.6709,4.372l-7.5771-4.372,7.5771-4.3746A14.53632,14.53632,0,0,1,710.10248,437.5513Zm-11.3442-14.1319a14.43662,14.43662,0,0,1,7.1089,3.8999c.1504.1529.30082.3115.4473.4722l-7.5562,4.3623Zm0,19.5274,7.5562,4.3637c-.14648.1612-.293.3194-.4473.4722a14.44759,14.44759,0,0,1-7.1089,3.8999Zm0,15.0918a20.73323,20.73323,0,0,0,13.061-7.5498l11.1133,6.4165a33.49421,33.49421,0,0,1-24.1743,13.9648Zm-6.25,12.8315A33.51588,33.51588,0,0,1,668.332,456.9053l11.11478-6.4165a20.40877,20.40877,0,0,0,1.5337,1.7148,20.67045,20.67045,0,0,0,11.5278,5.835Zm-11.3467-33.3188a14.44626,14.44626,0,0,1,.67342-4.3746l7.57658,4.3746-7.57658,4.372A14.43663,14.43663,0,0,1,681.16158,437.5513Zm11.3467,14.1313a14.43739,14.43739,0,0,1-7.1089-3.8999c-.1523-.1528-.3052-.311-.4516-.4722l7.5605-4.3637Zm0-19.5288-7.5581-4.3643c.1465-.1606.2969-.3173.4492-.4702a14.42643,14.42643,0,0,1,7.1089-3.8999Zm-20.5366-18.2661a33.36511,33.36511,0,0,1,20.5366-9.6558v12.8316a20.716,20.716,0,0,0-13.0615,7.5503l-11.11478-6.419A33.6227,33.6227,0,0,1,671.97168,413.8877Zm-9.8023,23.6636a33.35148,33.35148,0,0,1,3.0479-13.9693l11.11472,6.417a20.78754,20.78754,0,0,0,0,15.1045L665.21728,451.52A33.35556,33.35556,0,0,1,662.16938,437.5513Z" transform="translate(-291.94189 -161.7734)" fill="#45054f" fill-rule="evenodd"/><path d="M526.44969,561.0049a17.70961,17.70961,0,0,0-25.1201,0h-.0142a17.75446,17.75446,0,0,0-5.2246,12.5732v59.4326h35.5977V573.5781a17.74807,17.74807,0,0,0-5.2266-12.5605ZM505.73,565.4199a11.5522,11.5522,0,0,1,19.53559,6.169h-22.7519A11.61947,11.61947,0,0,1,505.73,565.4199Zm5.03369,61.3408h-8.4229V614.8301h8.4229Zm0-18.1806h-8.4229v-9.6475h8.4229Zm0-15.8975h-8.4229V577.8389h8.4229Zm14.6728,34.0781h-8.4228V614.8301h8.4228Zm0-18.1806h-8.4228v-9.6475h8.4228Zm0-15.8975h-8.4228V577.8389h8.4228Z" transform="translate(-291.94189 -161.7734)" fill="#45054f" fill-rule="evenodd"/><path d="M874.18948,497.9267c-12.6299-21.3212-24.73148-41.7495-53.9473-43.1044V425.2685c1.5996.0879,3.34082.0976,5.2412.0225l-.3252-8.3008c-13.5537.5498-14.6689-5.2021-15.65818-10.333l-.21872-1.1333-.0167-.0161c-7.59658-37.7403-30.80658-46.1104-53.4912-54.293-15.4629-5.5747-30.6601-11.0556-39.0341-26.8799-2.8487-4.832-5.9776-9.6743-9.0704-14.4794a10.45029,10.45029,0,0,0,4-2.4922,10.34571,10.34571,0,0,0-7.3076-17.6558h-4.4414V259.4321h-8.3335v30.2754h-4.6811a10.34808,10.34808,0,0,0-3.3106,20.146c-3.0903,4.8052-6.2212,9.6514-9.0693,14.4814-8.3721,15.8243-23.5723,21.3052-39.0303,26.8799-22.6865,8.1826-45.89449,16.5527-53.49308,54.293l-.01661.0161-.2198,1.1333c-.9907,5.1309-2.1054,10.8828-15.6572,10.333l-.3257,8.3008c1.9024.0751,3.6441.0654,5.2407-.0225v29.5538c-29.2153,1.3549-41.3183,21.7832-53.9467,43.1044-13.0455,22.0264-26.7134,45.1016-62.5918,45.1133l-7.959.0039v8.3008h3.9795V721.6299H940.75878V551.3447h3.9795v-8.3008l-7.959-.0039C900.90228,543.0283,887.23538,519.9531,874.18948,497.9267ZM533.02929,715.3799H494.748V655.8535h38.28129Zm37.9941,0h-31.7441V668.8701h12.75v6.4902h-4.1016v6.2539h23.0957Zm0-40.0196h-12.7441v-6.4902h3.7173v-6.25h-21.3379v-6.4893h30.3647Zm0-25.4795h-12.7441V641.873h-6.25v8.0078h-12.75v-.2773H488.498v65.7764H456.75539V551.3125c38.9184-.9395,53.5278-25.5977,67.4809-49.1533,11.3565-19.1753,22.2451-37.5489,46.7871-38.9834ZM682.81148,300.0532a4.10961,4.10961,0,0,1,4.0938-4.0957h17.456a4.09547,4.09547,0,0,1,0,8.1909h-.334l-.041-.0669h-16.707l-.0405.0669h-.3335a4.10875,4.10875,0,0,1-4.0938-4.0952Zm92.835,415.3267H612.75538v-4.3496h162.8911Zm2.0224-83.2119v6.8359H613.59568V632.168Zm-153.7666-6.25,71.7286-35.2012,71.7304,35.2012Zm137.7461,19.3359v59.5264h-7.8125V645.2539Zm-14.0625,0v59.5264h-12.5V645.2539Zm-18.75,0v59.5264h-7.8125V645.2539Zm-14.0625,0v59.5264h-38.2807V645.2539Zm-44.5307,0v59.5264h-7.8125V645.2539Zm-14.063,0v59.5264h-12.502V645.2539Zm-18.752,0v59.5264h-7.8105V645.2539Zm176.5645-189.4634V715.3799h-32.0918V704.7803h-14.002V645.2539h16.0205V625.918h-2.4296l-84.4888-41.4629-1.3696-.6719-85.856,42.1348h-2.4292v19.3359h16.0195v59.5264h-16.8598v10.5996h-29.232V452.4741h31.98249v-6.2519h-11.7168v-6.4878h27.1425v6.4878h-4.1015v6.2519h26.2207v-6.2519h-15.8692v-6.4878h3.7173v-6.252H613.311v-6.4922h33.48978v-6.25h-15.8692v-8.0058h-6.25v8.0058h-27.3867v6.25H607.061v6.4922H583.42579v6.252h7.8613v6.4878h-14.0137V424.376c10.0201-2.5371,11.4058-9.6397,12.6631-16.1421l.2198-1.1148-.0147-.0019c6.67969-33.1324,27.65141-40.6964,48.15329-48.0899,16.9614-6.1157,33.6363-12.1318,43.52-30.6948l10.0318-15.9155h7.5727l10.0318,15.9155c9.8799,18.563,26.5586,24.5791,43.5224,30.6948,20.5,7.3935,41.4717,14.9575,48.1485,48.0899l-.0117.0019.22362,1.1148c1.25288,6.5024,2.63668,13.605,12.65818,16.1421Zm6.25,200.063h12.7451v6.4902h-3.7197v6.25h21.3418v6.4942h-30.3672Zm31.7432,59.5264h-31.7432v-34.042h12.7451v8.0078h6.25v-8.0078h12.7481Zm44.5312,0h-38.2812V655.8535h38.2812Zm37.9922,0h-31.7422V649.6035h-50.7812v12.7402h-12.7481v-6.4902h4.1016v-6.25h-23.0967V463.1758c24.5449,1.4345,35.4297,19.8081,46.79,38.9834,13.9483,23.5556,28.5606,48.2138,67.4766,49.1533Z" transform="translate(-291.94189 -161.7734)" fill="#45054f" fill-rule="evenodd"/><path d="M864.81838,561.0049h-.0157a17.76282,17.76282,0,0,0-5.2246,12.5732v59.4326h35.5996V573.5781a17.74974,17.74974,0,0,0-5.2285-12.5605l-.0127-.0127a17.70721,17.70721,0,0,0-25.1181,0Zm9.43262,65.7558h-8.42292V614.8301H874.251Zm0-18.1806h-8.42292v-9.6475H874.251Zm0-15.8975h-8.42292V577.8389H874.251Zm14.67278,34.0781H880.501V614.8301h8.42278Zm0-18.1806H880.501v-9.6475h8.42278Zm0-15.8975H880.501V577.8389h8.42278Zm-.1709-21.0937h-22.75a11.55046,11.55046,0,0,1,22.75,0Z" transform="translate(-291.94189 -161.7734)" fill="#45054f" fill-rule="evenodd"/><path d="M867.03218,502.1592c-11.3603-19.1753-22.2451-37.5489-46.79-38.9834V649.6035h23.0967v6.25h-4.1016v6.4902h12.7481V649.6035h50.7812v65.7764h31.7422V551.3125C895.59278,550.373,880.98048,525.7148,867.03218,502.1592Zm22.917,58.8584a17.74974,17.74974,0,0,1,5.2285,12.5605v59.4326h-35.5996V573.5781a17.76282,17.76282,0,0,1,5.2246-12.5732h.0157a17.70721,17.70721,0,0,1,25.1181,0Z" transform="translate(-291.94189 -161.7734)" fill="#45054f" fill-rule="evenodd"/></svg>