<?xml version="1.0" encoding="utf-8"?>
<!-- Generator: Adobe Illustrator 22.0.1, SVG Export Plug-In . SVG Version: 6.00 Build 0)  -->
<svg version="1.1" id="Layer_1" xmlns="http://www.w3.org/2000/svg" xmlns:xlink="http://www.w3.org/1999/xlink" x="0px" y="0px"
	 viewBox="0 0 279.7 485.1" style="enable-background:new 0 0 279.7 485.1;" xml:space="preserve">
<style type="text/css">
	.st0{fill:#E4B69D;}
	.st1{opacity:0.7;fill:url(#SVGID_1_);enable-background:new    ;}
	.st2{fill:#808080;}
	.st3{fill:#666666;}
	.st4{fill:#54B8E2;stroke:#4D4D4D;stroke-width:1.4;stroke-miterlimit:10;}
	.st5{fill:#4D4D4D;}
	.st6{opacity:0.3;}
	.st7{fill:url(#SVGID_2_);}
	.st8{fill:none;stroke:#333333;stroke-width:1.4;stroke-miterlimit:10;}
	.st9{fill:#333333;stroke:#808080;stroke-width:1.4;stroke-miterlimit:10;}
	.st10{fill:url(#SVGID_3_);}
	.st11{fill:url(#SVGID_4_);}
	.st12{fill:#FFFFFF;fill-opacity:0.7;}
	.st13{opacity:0.7;fill:url(#SVGID_5_);enable-background:new    ;}
	.st14{fill:#FFFFFF;}
	.st15{font-family:'MyriadPro-Regular';}
	.st16{font-size:11.138px;}
	.st17{opacity:0.7;fill:url(#SVGID_6_);enable-background:new    ;}
	.st18{opacity:0.2;fill:#FFFFFF;enable-background:new    ;}
	.st19{opacity:0.3;fill:url(#SVGID_7_);enable-background:new    ;}
	.st20{opacity:0.2;enable-background:new    ;}
	.st21{fill:#754C24;}
	.st22{fill:#333333;}
	.st23{fill:#CCCCCC;}
	.st24{fill:#E6E6E6;}
	.st25{fill:#C1272D;}
	.st26{fill:#F2F2F2;}
	.st27{fill:#A67C52;}
	.st28{fill:#1A1A1A;}
	.st29{opacity:0.1;enable-background:new    ;}
	.st30{opacity:0.3;enable-background:new    ;}
	.st31{opacity:0.3;fill:#FFFFFF;enable-background:new    ;}
	.st32{opacity:0.5;fill:#FFFFFF;enable-background:new    ;}
	.st33{fill:url(#SVGID_8_);}
	.st34{fill:url(#SVGID_9_);}
	.st35{opacity:0.4;enable-background:new    ;}
	.st36{fill:#BA8F49;}
	.st37{fill:url(#SVGID_10_);}
	.st38{fill:#CEA28B;}
	.st39{fill:#EFC7B0;}
	.st40{opacity:0.5;fill:url(#SVGID_11_);enable-background:new    ;}
	.st41{fill:#A87139;}
	.st42{opacity:0.5;fill:url(#SVGID_12_);enable-background:new    ;}
	.st43{opacity:0.7;fill:url(#SVGID_13_);enable-background:new    ;}
	.st44{fill:#4A0F00;}
	.st45{fill:#926D5A;}
	.st46{fill:#29ABE2;}
	.st47{fill:#543E36;}
	.st48{opacity:0.5;fill:url(#SVGID_14_);enable-background:new    ;}
	.st49{opacity:0.3;fill:none;stroke:#FFFFFF;stroke-width:1.4;stroke-miterlimit:10;enable-background:new    ;}
</style>
<title>about-1</title>
<g>
	<g id="Free_Vector_Guy_with_Phone">
		<path class="st0" d="M210.6,321.6c0,0,27.3-30.4,30-36s8.1-9,11.5-7.1c5.3,2.8,1.3,7.9-4.5,18.2c-6.3,11.2-15,30.8-30,43.2
			L210.6,321.6z"/>
		<path class="st0" d="M254.2,284.3l25.5-58.9l-3.5-20.6l-21.1-10.1c0,0-2.9,1.6-2.6,7.5s9.4,10.5,9.4,10.5l-34,47.9L203.2,236
			l2.3,24.5c0,0,20.4,25.2,27.1,23.8S254.2,284.3,254.2,284.3z"/>
		<path class="st0" d="M250.1,144.4l5.1,28.8c0,0-5,3.7-10.5-3.5c-7.5-9.8-7.4-17-3.8-21.1C247.5,141.1,250.1,144.4,250.1,144.4z"/>
		
			<linearGradient id="SVGID_1_" gradientUnits="userSpaceOnUse" x1="599.0501" y1="65.8698" x2="612.6701" y2="72.8498" gradientTransform="matrix(1 0 0 -1 -360.13 230.57)">
			<stop  offset="0" style="stop-color:#000000"/>
			<stop  offset="0.99" style="stop-color:#000000;stop-opacity:0"/>
		</linearGradient>
		<path class="st1" d="M250.1,144.4l5.1,28.8c0,0-5,3.7-10.5-3.5c-7.5-9.8-7.4-17-3.8-21.1C247.5,141.1,250.1,144.4,250.1,144.4z"/>
		<path class="st2" d="M203.2,183.9c-0.9-1.4,18.2-28.9,18.2-28.9s4.7-6.8,8.7-4.6c2.7,1.5,7.7,3.9,7.7,3.9l26.5,61.8
			c1.3,4.1,1,8.6-1,12.4c-2.8,5.5-32.1,36.7-35.3,37.2c-4.7,0.7-6.7-0.8-6.7-0.8L203.2,183.9z"/>
		<path class="st3" d="M221.4,260.5c0,0,23.8-25.3,28-30.1c5.3-6.2,2.4-14.6,2.4-14.6l-23-62.2c0,0-1.1-1.4-4.2,0
			s-21.3,30.3-21.3,30.3L221.4,260.5z"/>
		<polygon class="st4" points="205.5,191.4 224.5,165.8 241.3,216.5 217.3,246.7 		"/>
		<path class="st5" d="M226.9,238.3c-2,3.1-2.4,6.4-1,7.4s4.2-0.9,6.2-4s2.4-6.4,1-7.4S228.9,235.2,226.9,238.3z"/>
		<g class="st6">
			
				<linearGradient id="SVGID_2_" gradientUnits="userSpaceOnUse" x1="584.4321" y1="-9.3851" x2="594.759" y2="-9.3851" gradientTransform="matrix(1 0 0 -1 -360.13 230.57)">
				<stop  offset="0" style="stop-color:#FFFFFF"/>
				<stop  offset="1" style="stop-color:#000000"/>
			</linearGradient>
			<path class="st7" d="M226.8,246.6L226.8,246.6c-0.4,0-0.9-0.1-1.3-0.4c-1-0.6-1.3-1.9-1.1-3.5c0.3-1.7,0.9-3.3,1.9-4.8
				c1.7-2.7,4.1-4.6,5.9-4.6c0.4,0,0.9,0.1,1.3,0.4c0.9,0.6,1.3,1.9,1.1,3.5c-0.3,1.7-0.9,3.3-1.9,4.8
				C231,244.8,228.6,246.6,226.8,246.6z M232.2,234.7c-1.1,0-3.1,1.3-4.8,3.9c-0.8,1.3-1.4,2.7-1.7,4.2c-0.1,1.1,0,1.9,0.5,2.2
				c0.9,0.6,3.3-0.7,5.3-3.8c0.8-1.3,1.4-2.7,1.7-4.2c0.2-1.1,0-1.9-0.5-2.2C232.5,234.8,232.4,234.7,232.2,234.7L232.2,234.7z"/>
		</g>
		<polygon class="st5" points="230.8,256.5 234.2,258 248.6,242.2 246.4,240.7 		"/>
		<line class="st8" x1="232.6" y1="256.3" x2="246.4" y2="242.1"/>
		<path class="st9" d="M209.5,181.7l6.6-9.3c0,0,2-2.1,0.7-3.7c-0.4-0.5-2.5,2.5-2.5,2.5l-5.8,7.9c0,0-1.6,2-1.2,2.6
			C208.6,183.5,209.5,181.7,209.5,181.7z"/>
		<path class="st5" d="M236,229.1l2.1,7c0,0,5.5-4.5,6.3-7.1s-1.6-8.3-1.6-8.3L236,229.1z"/>
		<g class="st6">
			
				<linearGradient id="SVGID_3_" gradientUnits="userSpaceOnUse" x1="595.31" y1="2.28" x2="605.3342" y2="2.28" gradientTransform="matrix(1 0 0 -1 -360.13 230.57)">
				<stop  offset="0" style="stop-color:#FFFFFF"/>
				<stop  offset="1" style="stop-color:#000000"/>
			</linearGradient>
			<path class="st10" d="M237.7,237.2l-2.5-8.4l7.7-9.6l0.5,1.1c0.3,0.6,2.5,6,1.7,8.8s-5.9,7-6.5,7.4L237.7,237.2z M236.7,229.2
				l1.7,5.6c1.8-1.6,4.7-4.4,5.3-6.1s-0.5-4.7-1.2-6.7L236.7,229.2z"/>
		</g>
		<path class="st5" d="M221.9,245l1.5,6.8c0,0-2,4-4.6,4.8s-2.3-5.1-2.3-5.1L221.9,245z"/>
		<g class="st6">
			
				<linearGradient id="SVGID_4_" gradientUnits="userSpaceOnUse" x1="379.91" y1="-213.0818" x2="393.82" y2="-213.0818" gradientTransform="matrix(0 1 -1 0 6.89 -136.45)">
				<stop  offset="0" style="stop-color:#FFFFFF"/>
				<stop  offset="1" style="stop-color:#000000"/>
			</linearGradient>
			<path class="st11" d="M218.4,257.4c-0.5,0-1-0.2-1.4-0.6c-1.3-1.4-1.2-4.9-1.2-5.3v-0.2l6.4-7.8l1.9,8.4l-0.1,0.2
				c-0.1,0.2-2.2,4.3-5,5.2C218.8,257.3,218.6,257.4,218.4,257.4z M217.2,251.8c0,1.3,0.2,3.4,0.8,4c0.2,0.3,0.4,0.2,0.6,0.1
				c1.8-0.6,3.4-3.1,4-4.3l-1.1-5.1L217.2,251.8z"/>
		</g>
		<path class="st12" d="M229,200.5l-5.8,4.1l-1.3-2.5c1.2-1.9,1.8-4.2,1.8-6.5c0-1.3-0.2-2.6-0.7-3.8c0.4-0.4,0.6-1,0.6-1.6
			c0.1-0.6-0.4-1.2-1-1.3c-0.2,0-0.4,0-0.5,0.1c-0.3,0.1-0.6,0.3-0.8,0.5c-1.1-0.8-2.5-1.1-3.8-0.6c-3.2,1-5.8,5.3-5.9,9.7
			c0,1.3,0.2,2.5,0.6,3.7c-0.4,0.4-0.7,1-0.7,1.5c0,0.9,0.6,1.5,1.3,1.4c0.4-0.1,0.7-0.3,0.9-0.6c0.9,0.9,2.3,1.3,3.5,1
			c0.7-0.1,1.4-0.4,2-0.9l1.2,3.1l-3.8,9l0.3,3.8l13.2-17.4L229,200.5z"/>
		<path class="st0" d="M243.6,164.8l20.5,11.7c0,0,4.2,12.1,3.1,14.9c-0.7,1.7-5.1-5.3-8.5-5.6c-12.3-1-17.6-5.9-18.2-11.4
			C239.4,164.4,243.6,164.8,243.6,164.8z"/>
		
			<linearGradient id="SVGID_5_" gradientUnits="userSpaceOnUse" x1="611.5672" y1="46.3215" x2="616.8072" y2="56.4515" gradientTransform="matrix(1 0 0 -1 -360.13 230.57)">
			<stop  offset="0" style="stop-color:#000000"/>
			<stop  offset="0.99" style="stop-color:#000000;stop-opacity:0"/>
		</linearGradient>
		<path class="st13" d="M243.6,164.8l20.5,11.7c0,0,4.2,12.1,3.1,14.9c-0.7,1.7-5.1-5.3-8.5-5.6c-12.3-1-17.6-5.9-18.2-11.4
			C239.4,164.4,243.6,164.8,243.6,164.8z"/>
		<text transform="matrix(0.5521 -0.7227 0.3312 0.9435 220.2199 230.9394)" class="st14 st15 st16">C</text>
		<text transform="matrix(0.5521 -0.7227 0.3312 0.9435 223.8114 226.2377)" class="st14 st15 st16">ALL</text>
		<path class="st0" d="M250,180l20.5,11.7c0,0,0.6,11.5,0.8,14.5c0.4,6.3-2.7-4.9-6.1-5.1c-12.3-1-17.6-5.9-18.2-11.4
			C245.9,179.7,250,180,250,180z"/>
		
			<linearGradient id="SVGID_6_" gradientUnits="userSpaceOnUse" x1="615.6006" y1="30.5641" x2="622.5807" y2="39.6441" gradientTransform="matrix(1 0 0 -1 -360.13 230.57)">
			<stop  offset="0" style="stop-color:#000000"/>
			<stop  offset="0.99" style="stop-color:#000000;stop-opacity:0"/>
		</linearGradient>
		<path class="st17" d="M250,180l20.5,11.7c0,0,0.6,11.5,0.8,14.5c0.4,6.3-2.7-4.9-6.1-5.1c-12.3-1-17.6-5.9-18.2-11.4
			C245.9,179.7,250,180,250,180z"/>
		<path class="st0" d="M254.6,194.6l19.9,9.3c0,0,4.2,9.1-4.2,9.1c-11.5,0-16.8-4.1-17.8-9.2C250.7,194.6,254.6,194.6,254.6,194.6z"
			/>
		<path class="st18" d="M250.1,144.4l3.8,22.8c0,0-8.4-15.5-7.4-19.5S250.1,144.4,250.1,144.4z"/>
		<path class="st18" d="M245.3,165.8l18.7,10.7l0.5,4.8c0,0-17.6-8.4-19.2-11.6S245.3,165.8,245.3,165.8z"/>
		<path class="st18" d="M214.3,319.2l0.4,9.6c0,0,8.4-8,13.2-17.8s14.1-25.3,14.1-25.3L214.3,319.2z"/>
		
			<linearGradient id="SVGID_7_" gradientUnits="userSpaceOnUse" x1="586.8895" y1="-50.3697" x2="597.6594" y2="-33.4096" gradientTransform="matrix(1 0 0 -1 -360.13 230.57)">
			<stop  offset="0" style="stop-color:#FFFFFF"/>
			<stop  offset="0.99" style="stop-color:#FFFFFF;stop-opacity:0"/>
		</linearGradient>
		<path class="st19" d="M225,279.3c0.3,1.7,5.8,5.2,9.2,4.7s7.8-1.3,7.1-1.8c-10.3-7.6-2.8-19.1,5.5-30.8
			c-5.7,4.9-16.8,15.6-17.3,16.5s-8.1-2.8-8.1-2.8L225,279.3z"/>
		<path class="st20" d="M244.5,145.2c0,0-3.3,11.8,0,15.1s9.9,8.5,9.9,8.5l0.2,2.3c0,0-9.9-6.6-11-6.3s-6.6,5.2-3,9.6
			c2.2,2.7,5.1,4.7,8.3,5.6c0,0-2.7,3.3-0.2,6.4s21.8,12.5,21.8,12.5l0.8,3.4l-16.7-7.8c0,0-4.6-0.1-2.1,5.9s8.8,8.8,12.5,9.5
			c2,0.3,3.9,1.3,5.2,2.9c0,0-4.5-1-3.9,4.8s-0.1,12.5-14.3,28.1c-14.2,15.7-14.8,21.8-14.8,21.8s0.6-5-4.7-1.6
			c-3.1,2-6.4,3.7-9.9,5.1l-1.3-6.1c0,0,6.4,1.5,9.4-2s33.8-34,33.7-39.4c-0.1-3.3-0.9-6.5-2.2-9.5c0,0-11.5-3.4-12.2-10.2
			s0.8-4.8,0.8-4.8s-5.9-6.6-6.3-10.7s0-5,0-5s-6.6-4.9-6-11.6s1.3-7.9,1.3-7.9s-3.3-2.7-2.6-6s1.9-1.4,1.9-1.4s-1-2.3,1.2-5.8
			C241.5,148.5,242.9,146.8,244.5,145.2z"/>
		<path class="st21" d="M103.3,411l-7,41.2c0,0,6.3,2.8,3.5,4.2s-3.1,6.6-3.5,8s4.7,3.8,4.7,3.8s14.9-45.1,17.3-47.5
			s11.2-2.5,14.7-2.1s3.7,0.6,3.7,0.6s-0.6,6-2.3,14.1c-2.6,12.3-12,32.5-6.3,30.4c3.5-1.3,6.9-3.2,9.9-5.4l-1.4-2.3
			c0,0-3.1,0-1.1-2.3c0.5-0.6,1.2-0.2,2.4-2.3c10-18,18.1-40,18.1-40s-20.4-4.6-30.4-4.2S103.3,411,103.3,411z"/>
		<path class="st0" d="M53.9,366l-3.3,6.2c0,0,9.4,11.1,29.1,20.2c4.1,1.9,9.6,4.4,9.6,4.4c0.3,2.3,1,4.5,2.1,6.5
			c1.9,3.7,14.2,4.1,14.2,4.1l1.3-21.5c0,0-5.7-2.9-8.1-2.4s-5.2,4-5.2,4s-12.5-9.3-18.3-19.5C71.3,361.4,53.9,366,53.9,366z"/>
		<path class="st22" d="M125.4,471.1v8.4h5.5l0.5-4.2l8.6,4.6c0,0,14.3,1.1,18.8,1.1c6.6,0,7.1-5.7,7.1-5.7
			c-12.7,0.2-11.3-5.8-16.7-5.4c-3,0.2-6.1-0.1-9.1-0.7c-2.6-0.3-2.7-4.2-2.7-4.2L125.4,471.1z"/>
		<path class="st22" d="M77.6,484c0,0,11.1,2.5,15.6,0c2.7-1.4,4.6-3.8,5.5-6.6l-0.4,2.8l2.7,0.6l1.6-1.3l-0.3-8.4
			c0,0-5.6-5.9-9.1-2.8c-3.9,3.5-7.4,1.7-9.5,4.7c-4.7,6.9-8.5,5.1-8.5,5.1L77.6,484z"/>
		<path class="st23" d="M88,326.2l-23.9,25.2l9.9,8.2c0,0,17.1-15.5,19.2-14.2s11.7,26.6,12.6,39.5s-2.5,26.2-2.5,26.2
			s22.1-2.1,30.3-2.1s21.7,3.5,21.7,3.5c1-1.7,1.8-3.4,2.4-5.3c1-3.1,17-35.2,17.5-52.2c0.4-12.9,0-14.1,0-14.1
			c4.2,1.5,8.6,2.6,13,3.5c3.5,0.5,7.1,0.7,10.7,0.7l-2.5-21.4c-4.8,0.5-9.6,0.5-14.3,0.1c-7.7-0.7-14.4-5.3-14.4-5.3L88,326.2z"/>
		<path class="st24" d="M47.5,365.9c0.4-1.2,7.3,3.7,13.6,3.3s15.2,0,15.2,0V364h2.4l2-5.2l-16.6-13.6c0,0-2-4.5-5.1,0
			c-1.7,2.3-3.2,4.8-4.5,7.3l2.7,2.1H52L47.5,365.9z"/>
		<path class="st24" d="M193.1,321.6c-0.3,2.3-3.5,28-3.5,28l13,1.4l2.8-3.1l3.4,3.1l12.6-4.5c0,0-6.6-14.7-7-19.2
			c-0.2-2.9-0.7-5.9-1.4-8.7h-7.6c0,0-1.4,2.1-2.8,2.4S193.1,321.6,193.1,321.6z"/>
		<path class="st25" d="M140,328.6c0,0-6.6,4.7-5.1,10.9c1.9,7.7,7.3,7.7,7.3,7.7c1.8-1.6,4.2-2.5,6.6-2.4c4.2,0,5.9,1,5.9,1
			s6.3-5.4,2-12.8C151.2,323.5,140,328.6,140,328.6z"/>
		<path class="st26" d="M106.9,325.8c0.3,1,20.3,21.3,20.3,21.3s7.7-13.6,16.7-19.5c6.6-1.8,12.9,8,18.5,14.4c7.3-7.2,3-22.8,3-22.8
			L106.9,325.8z"/>
		<path class="st25" d="M142.5,345.2c-0.8,9.8-2.7,19.6-5.8,28.9c-2.1,6-4.6,11.9-7.5,17.6l16.1,15.5l14.5-10.8
			c0,0-0.3-6.3-0.4-22.4c-0.2-19.2-6-31.7-6-31.7l-9.4,2.6"/>
		<path class="st27" d="M91.4,459.6c-2.3,2.5,1.9,8.7,1.9,8.7l9.1,2.8l4.5-9.1C106.8,462,93.7,457.2,91.4,459.6z"/>
		<path class="st27" d="M123.2,462.2l2.2,9l13.2-2.8c0,0,2.2-2.8,2.2-4.2c-0.2-1.1-0.6-2.2-1.4-3c0,0,2.9-0.7,2.7-2.2
			C141.9,456.2,123.2,462.2,123.2,462.2z"/>
		<path class="st28" d="M104.1,407.4c0,0,25.1-0.5,33.9-0.3c6.3,0.1,12.5,1.1,18.5,3l-1.8,4.5c0,0-13.2-1.9-21.4-2.2
			s-30.4,1.2-30.4,1.2L104.1,407.4z"/>
		<polygon class="st24" points="135.5,406.5 134.4,413.4 144.1,414 145.8,407.5 		"/>
		<path class="st20" d="M64.1,345.1c-1,1.3-4.5,3.8-4,5.8c0.2,1,5,4.2,5.9,4.9c3.3,2.5,8.8,6.4,12.7,7.6c-0.2,0.6-1.9,0.1-2.4,0.6
			c-4-0.6-7.6-4-11-6c-1.5-1-3.2-1.8-4.9-2.5c-2-0.6-3.3-0.1-5.5-0.3c-0.2,2.9-0.9,5.7-2.1,8.2c6.1,2.9,16.3,6.7,23.1,4.8
			c0.1,0.5-0.7,0.7-0.8,1.2c4.1-0.8-11.5,2.7-22.9-0.2c-0.4-0.1,1.4-1.6,0.9-1.7c-1.7-0.5-3.3-1.2-4.7-2.1l3.7-10.9
			c0,0,4.7,0.1,6.9,0.2c-1.4-0.8-2.6-1.7-3.8-2.7c1.4-1.8,2.3-4.8,3.9-6.3c2.9-2.9,1.4-1.7,3.8-2.2"/>
		<path class="st20" d="M171.5,327.4c2.7,2.8,3.7,13.5,3.7,13.5s10.3,3,14.4,3.5c0.1-4.3,1.3,0.8,0,5.2c3.9,0.2,9.2,0.8,13,1.4
			c-0.1-3.5,0.4-9.5,0.5-13c0.1-2.8-0.8-8.4,0.7-10.7c0.4,5,1.7,20.6,1.7,20.6s1,0.4,3.4,3.1c3.1-1.8,12.6-4.5,12.6-4.5
			s-2.6-5.8-2.7-7.3c2.4-1.6,4.3-3.7,5.8-6.1c-2.9,6.6-11.7-9.2-11-12.9c0.9,5.9,2.2,14.7,4.4,21.4c-2.2,2.2-6.8,2.4-9.6,3.9
			c-3.2-2.8-2.8-25.2-3.6-26.7c-1.8,3.8-1.9,8.7-2.3,13c-0.5,4.5-1.1,9.2-1.2,13.7c-2.8-0.6-5.4-2.5-8.3-3
			c-1.6-5.9,0.4-12.2-0.1-18.3c-0.7,1.8-4.7,17.2-4.7,17.2c-2.1-0.2-4.1-0.6-6.1-1.2c-4.1-1.8-4.9-5.2-9.9-11.8"/>
		<path class="st20" d="M68.6,348.9l9,7.3c0,0,11.1-9.6,13.4-10.2s2.8,0,2.8,0s-2.1-4.1-4-7.6s0,5.1,0,5.1L77.6,351L68.6,348.9z"/>
		<path class="st29" d="M92.5,339.9c0,0,13.5,29,14.3,40.8s-1.3,26.5-1.3,26.5s30.6-0.4,36.4,0.2c4.9,0.7,9.8,1.6,14.6,2.8l1.2-3
			l-10-1.7l-2.3,1.7c0,0-2.1-2.9-2.6-3c-3.7-0.3-13.7-0.2-17.2-0.2c-14-0.2-11.9,0-11.9,0c0.6-9.9-0.5-19.8-3.5-29.3
			C105.3,359.6,92.5,339.9,92.5,339.9z"/>
		<polygon class="st30" points="105.1,329.4 124.2,348.9 126.1,346.9 110,329.4 		"/>
		<path class="st30" d="M157.7,336.4c-1.9-2.2-4.6-6-9-7.8c-1.3,0.2-2.6,0.4-3.9,0.6c-1.7,0.4-3.5,0.6-5.3,0.5
			c-5.4,4.3-10.3,14-10.3,14l4.2-2.8l4.7,4.4c-0.2-1.8-0.2-3.6,0-5.4c0.4-2.4,1.2-7.4,7.7-9.4s11.9,9.4,11.9,9.4l-1.3,3.8l3.4-0.6
			l2.5-1.2C162.3,342,160.1,339.3,157.7,336.4z"/>
		<path class="st20" d="M142.1,347c0,0-0.7-4,4.3-4.7c3-0.4,6,0.5,8.4,2.3c0,0-6.1-2.6-9-0.2s-2,3.3-2,3.3s-3.6,22.5-6.7,30
			s-5.7,13-5.7,13l14.3,14.8l-3.9,0.9l-16.3-14.6c0,0,3.7-10,6.4-16.9s8.1-26.2,8.1-26.2c-1.2-1-2.2-2.2-3-3.5
			c-1.1-1.6-2.3-3-3.7-4.4c0,0,4.1,3.6,4.7,4.4S142.1,347,142.1,347z"/>
		<path class="st20" d="M105.1,414c0,1-6.3,37.1-6.3,37.1c1.8,0.5,3.4,1.5,4.6,3c1.7,2.3-0.2,4.4-1.4,4.1c-0.7-0.2-1.4,0.1-1.7,0.7
			l3.3,2l-8.8-1.3l-0.8,0.7c-0.8,1.3-0.9,2.9-0.3,4.3c1.1,2,7.6,2.8,7.6,2.8l-5,0.9l6,2.8l-8.5-1.2c0,0,0.9,2.9-1.2,3.1
			s-3.1,0.7-6.1,3.2s-10.7,3.3-10.7,3.3s5.5-1.5,6.7-4s1-3.5,4.2-4.4c1.1-0.3,2.4-0.3,3.5-0.8c1.3-0.5,2.5-1.1,3.6-1.9
			c0,0-4.5-6.6-2.4-8.9c0.9-1,2.7-0.7,4.1-0.5c1.6,0.2,2.8,0.4,2.8,0.4c-0.3-0.8-0.1-1.6,0.5-2.2c1.1-0.9,4.1-1.8,1.2-3.4
			c-1.2-0.6-2.4-1.2-3.6-1.6l6.5-38.6L105.1,414z"/>
		<path class="st20" d="M113.1,433.4c0,0,2.7-13.5,5-14.9s18-1.9,24-1.2s9,0.9,9,0.9l-9,2.6c0,0-3.3,10-5.4,14.2s-7,14.3-7,14.3
			c-0.1,2.1-0.1,4.3,0,6.4c0.3,1.4,2.2-2.5,4.7-2.8l2.5-0.2c-0.7,0.2-1.4,0.6-1.9,1.1c-0.8,0.9-1,2.2,0.1,2.2h1.4l-5.2,2.1
			c-1.4,0.6,6.5,0,6.5,0l-9.6,2.5c0,0,0.2,2.8,1,2.7s4.8-2.2,7.5-2.2h2.7c0,0-5.6,2.4-8,3.5s-2.2,2.8-2.2,2.8h10.1l-0.6,0.9
			l-13.2,4.6l0.4-1.8l-2.6-9l2.9-0.9l0.9-3.1c0,0,2.1-8.8,4.1-13.2c3.3-7.3,5.9-24,5.6-25.7c0.4-1.3-16.1-2.3-18.4,1.5
			C117.3,422.5,113.1,433.4,113.1,433.4z"/>
		<path class="st29" d="M53,367.6c0,0,11.1,15.2,18.5,18.4s18.9,6.7,18.9,6.7s0.5,5.9,3.3,7.9c2.6,1.9,8.1,2.6,9.1-0.2
			s2.9-15.4,2.9-15.4s0.1,10.5-0.4,14.3s-1.2,8.3-1.2,8.3s-10.4-0.9-11.6-2.8c-1.5-2.4-2.6-5-3.2-7.8c0,0-17.7-7.9-23.9-12.4
			s-14.8-12.3-14.8-12.3L53,367.6z"/>
		<path class="st30" d="M118.4,420.8c0,0-2.4-4.8,23.2-3.1c8.1,0.5,9.6,0.5,9.6,0.5l-14.5,1.1c-4-0.8-8.2-1-12.3-0.5
			C119.9,419.3,118.4,420.8,118.4,420.8z"/>
		<path class="st30" d="M136.7,453c0,0-1.3-0.9-3.8,0.6s-3,2.8-3,2.8s-0.9,1.6,0.9,0.5c1.2-0.7,2.4-1.3,3.6-1.8
			c0.1-0.5,0.4-1,0.8-1.3C135.9,453.4,136.7,453,136.7,453z"/>
		<path class="st30" d="M137.9,458.2c0,0-7.9,0.9-8.6,1.2s-2.9,1.7-2.9,1.7L137.9,458.2z"/>
		<path class="st30" d="M139.6,461.4c-1.3-0.3-2.8-0.3-4.1,0c-1.6,0.6-5.4,1.7-5.4,1.7s4.1-1.2,5.4-1
			C136.9,462,138.3,461.8,139.6,461.4z"/>
		<path class="st30" d="M96.4,452.1l2.4-0.7c0,0,4,0.2,4.6,2.7s0.3,3.1,0.3,3.1s-0.7-2.4-1.8-2.9s-5.5-2.1-5.5-2.1L96.4,452.1z"/>
		<path class="st30" d="M97.6,459.2l5.9,1.7c0,0-2.2-1.9-3.3-2C99.3,458.9,98.4,459,97.6,459.2z"/>
		<path class="st30" d="M91.1,464c1,1.3,2.4,2.1,4,2.5c2.6,0.6,4.6,0.9,4.6,0.9s-2.8,1.6-4.9,0.4C93.3,466.9,92,465.6,91.1,464z"/>
		<polygon class="st30" points="93.2,468.3 102.3,471.1 92.3,469.1 		"/>
		<polygon points="98.7,477.4 101,475.7 101,480.8 98.3,480.2 		"/>
		<polygon class="st28" points="131.4,475.3 129.7,475.3 129.7,479.5 130.9,479.5 		"/>
		<polygon class="st14" points="80.7,358.8 66.2,346.9 78.2,358.8 78.7,363.4 		"/>
		<path class="st14" d="M56.7,356.2c0,0,8.3,7.5,12.6,7.2c2.2-0.2,4.5,0.1,6.5,1v3.7c-3.4-0.8-6.6-2-9.6-3.7
			c-3.7-2.3-7.3-4.8-10.7-7.5L56.7,356.2z"/>
		<path class="st31" d="M68.6,370.4c0.3-0.2,7.6,0,8,0.7s8.9,9.7,11.5,12s5.4,4.5,5.4,4.5s3.1-4.1,5.2-4s6.3,2.4,6.3,2.4
			s-6.1-3.3-7.8,0c-1.2,2.2-2.9,4-5,5.4c0,0-10.3-13.5-14.1-16.3C75.2,373.1,72,371.5,68.6,370.4z"/>
		<path class="st32" d="M68.6,346.9l18.2-19.5v6.5c0,0-1.3-3-5,1S68.6,346.9,68.6,346.9z"/>
		
			<linearGradient id="SVGID_8_" gradientUnits="userSpaceOnUse" x1="537.2101" y1="-135.9182" x2="508.5601" y2="-133.8283" gradientTransform="matrix(1 0 0 -1 -360.13 230.57)">
			<stop  offset="0" style="stop-color:#FFFFFF"/>
			<stop  offset="0.98" style="stop-color:#FFFFFF;stop-opacity:0"/>
		</linearGradient>
		<path class="st33" d="M170.6,323.9c4.5,12.5,5.5,26,2.8,39c-2.5,11.4-7.4,23-11.6,33.8c-2.4,6.2-4.1,10.5-4.1,10.5l-6.5-2.1
			l9.4-7.7c0,0,0.8-16.6,0.2-31.9c-0.2-6.4-1.7-12.7-4.3-18.6l2.3-3.8l3.5,1.4c0,0,6.5-3.7,5.9-8.9c-0.3-3.5-0.4-7-0.2-10.5
			L170.6,323.9z"/>
		
			<linearGradient id="SVGID_9_" gradientUnits="userSpaceOnUse" x1="586.3" y1="-101.5294" x2="519.4401" y2="-96.6394" gradientTransform="matrix(1 0 0 -1 -360.13 230.57)">
			<stop  offset="0" style="stop-color:#FFFFFF"/>
			<stop  offset="0.98" style="stop-color:#FFFFFF;stop-opacity:0"/>
		</linearGradient>
		<path class="st34" d="M173.1,321.9c3.3,0.9,6.6,1.6,10,2c3.2,0.2,6.5,0.3,9.7,0.1l0.3-2.4l10.8-0.8l1.4-2.1l7.8-0.3l4.8,22.9
			l-3.5,1.5L211,320l-5.9-0.5l-2.3,1.6l-7.4,1.4l-2.6,19.8l0.1-18l-2.9,6.2c0,0-5.5,0.2-8.2-1.1
			C178.3,327.7,175.3,325.1,173.1,321.9z"/>
		<path class="st31" d="M143.1,332.5c-2.6-0.1-4.4,5.1-4.4,7.2c0,1.1,0.4,3.2,1.6,3.6s2.6-1.1,3.8-1.7c2.5-1.3,5.5-1.3,8,0
			c1.3,0.6,1.8,1.7,3,0.2c0.8-1,0.5-2.7,0.2-3.8c-1.7-6-8.1-8.7-13.3-4.9"/>
		<path class="st31" d="M144.5,350.1c-1,11.2-4.9,21.5-9,31.8c-0.6,1.5-1.3,3.1-1.9,4.6s-1.3,2.2-0.4,3.6c1.9,2.8,4.6,5.3,6.7,8.1
			c1.4,1.9,3,3.5,4.5,5.3c1.8,2.1,2.1,1.7,4.4,0.1c3.5-2.3,8.1-4.4,10.8-7.7c-2.6,1.1-5,3.2-7.5,4.5c-1.3,0.7-2.7,1.2-4.1,1.4
			c-2,0.3-1.9,0.4-3.2-1c-2.3-2.5-4.6-4.9-6.6-7.5c-1-1.1-1.8-2.2-2.5-3.5c-0.8-1.8,0-2.3,0.8-4.1c2.8-6.3,4.8-12.9,5.9-19.7
			c0.5-3,1.4-5.9,1.8-8.9c0.3-2.3,1.5-6,0.5-8.2"/>
		<path class="st35" d="M83.9,330.6c5.3,2.6,10.9,4.5,16.7,5.5c5.3,1.1,10.7,1.6,16.1,1.5c4.2-0.9,8.4-2.1,12.5-3.5
			c6.4-2.2,8.9-1.6,8.9-1.6l-3.2,3.1c0,0-0.3,2.3,3,1.4s1.6-2.8,8.5-2.9c3.9-0.1,7.8,0.7,11.3,2.3l-2-3.2c0,0,6.2-3.9,8.5-2.5
			s2.4,0,2.4,0c1.6,0.1,3.2,0,4.8-0.3c2-0.5,2,3.6,2,3.6c0.7-2.8,2.3-5.2,4.6-6.9c3.9-3.2,5.1-3.1,5.1-3.1s-6.8-0.3-10-2
			s-82.4,2-82.4,2L83.9,330.6z"/>
		<g id="head">
			<path class="st36" d="M189,100.8l18,86.7c0,0-1.7-26.3,0.3-38.3c2.1-13.4,1.5-27.1-1.9-40.3c-2.6-10.2-10.5-9.1-10.5-9.1
				L189,100.8z"/>
			
				<linearGradient id="SVGID_10_" gradientUnits="userSpaceOnUse" x1="549.11" y1="86.9348" x2="568.73" y2="86.9348" gradientTransform="matrix(1 0 0 -1 -360.13 230.57)">
				<stop  offset="0" style="stop-color:#000000"/>
				<stop  offset="0.99" style="stop-color:#000000;stop-opacity:0"/>
			</linearGradient>
			<path class="st37" d="M189,100.8l18,86.7c0,0-1.7-26.3,0.3-38.3c2.1-13.4,1.5-27.1-1.9-40.3c-2.6-10.2-10.5-9.1-10.5-9.1
				L189,100.8z"/>
			<path class="st38" d="M44.2,216.8c1.2-1.3-12-19.4-23.2-18.3S7.3,211.1,15.8,232c5.6,13.9,23.9,13.1,25.9-3.5
				C42.6,219.5,44.2,216.8,44.2,216.8z"/>
			<path class="st39" d="M35.9,186.6c0,0,2.4,52.8,5.7,77.2c3.3,24.5,7.7,49.7,11.9,52.9s75.2,27.9,124.6,2.4s45.3-28.2,46.3-34.5
				S190.6,99.9,189.4,94.4s-14.4-19.7-82.4,5.5c-65.1,24.1-64,27.4-70.1,41.4S35.9,186.6,35.9,186.6z"/>
			<path class="st36" d="M35.3,136.8l8-7.1c5.2-4,10.7-7.6,16.4-10.7c20.4-11.7,53.8,16.3,113.1-4.5c81.7-28.7,37-124.9-9.1-113.5
				c22.9,1.3,10.9,21.7,10.9,21.7s-0.5-11.5-11.1-12.5s-20,4.1-20,4.1s11.7-0.6,17.3,4.3c6.3,5.5,8.8,12.3-7.8,17.5
				c-11.1,3.5-55.5-3.9-75.8,1.8c-16.9,4.8-68.3,30.6-54.9,81.4C24,126.7,28.8,133,35.3,136.8z"/>
			
				<linearGradient id="SVGID_11_" gradientUnits="userSpaceOnUse" x1="423.0903" y1="86.4544" x2="495.7503" y2="168.8944" gradientTransform="matrix(1 0 0 -1 -360.13 230.57)">
				<stop  offset="0" style="stop-color:#000000"/>
				<stop  offset="0.99" style="stop-color:#000000;stop-opacity:0"/>
			</linearGradient>
			<path class="st40" d="M35.3,136.8l8-7.1c5.2-4,10.7-7.6,16.4-10.7c20.4-11.7,53.8,16.3,113.1-4.5c81.7-28.7,37-124.9-9.1-113.5
				c22.9,1.3,10.9,21.7,10.9,21.7s-0.5-11.5-11.1-12.5s-20,4.1-20,4.1s11.7-0.6,17.3,4.3c6.3,5.5,8.8,12.3-7.8,17.5
				c-11.1,3.5-55.5-3.9-75.8,1.8c-16.9,4.8-68.3,30.6-54.9,81.4C24,126.7,28.8,133,35.3,136.8z"/>
			<path class="st41" d="M66.3,155.6l4.2,11.7l68.3-9.2l5.6-24.3l-5.1-0.2l-2.9,8.9l-1-7.4l-9.8,1.3l-4.2,10.2c0,0,1-7.8-1.1-7.8
				c-9.3-0.3-18.6,1.6-27,5.8C84.6,148.9,75.6,152.7,66.3,155.6z"/>
			
				<linearGradient id="SVGID_12_" gradientUnits="userSpaceOnUse" x1="465.49" y1="94.79" x2="465.49" y2="66.84" gradientTransform="matrix(1 0 0 -1 -360.13 230.57)">
				<stop  offset="0" style="stop-color:#000000"/>
				<stop  offset="0.99" style="stop-color:#000000;stop-opacity:0"/>
			</linearGradient>
			<path class="st42" d="M66.3,155.6l4.2,11.7l68.3-9.2l5.6-24.3l-5.1-0.2l-2.9,8.9l-1-7.4l-9.8,1.3l-4.2,10.2c0,0,1-7.8-1.1-7.8
				c-9.3-0.3-18.6,1.6-27,5.8C84.6,148.9,75.6,152.7,66.3,155.6z"/>
			<path class="st41" d="M162.6,141.9l1.2,23.3c0,0,7.8-1.1,17.1-2.3s15.7-2.1,15.7-2.1l3.3-10.3l-30.5-6.2l-1.3,4.4L162.6,141.9z"
				/>
			
				<linearGradient id="SVGID_13_" gradientUnits="userSpaceOnUse" x1="542.4388" y1="91.2917" x2="538.2488" y2="62.8817" gradientTransform="matrix(1 0 0 -1 -360.13 230.57)">
				<stop  offset="0" style="stop-color:#000000"/>
				<stop  offset="0.99" style="stop-color:#000000;stop-opacity:0"/>
			</linearGradient>
			<path class="st43" d="M162.6,141.9l1.2,23.3c0,0,7.8-1.1,17.1-2.3s15.7-2.1,15.7-2.1l3.3-10.3l-30.5-6.2l-1.3,4.4L162.6,141.9z"
				/>
			<path class="st44" d="M75.8,238c0,0,29,19.6,58.8,21.3c36.2,2,36.3,1.2,53.6-0.3l-4.8,2.5c0,0-3.2,23.2-47.5,34.2
				c-34.9,8.6-38.8-1.8-38.8-1.8c-6-8.4-10.4-17.9-13.2-27.8C79.6,251,75.8,238,75.8,238z"/>
			<path class="st14" d="M88.2,246.7l5.8,25.2c12.5,5.7,26.2,8.1,39.9,7.1c22.8-1.7,46.5-10.2,46.5-10.2l3-7.3
				c0,0-20.3,1.8-51.9-0.5C109.5,259.5,88.2,246.7,88.2,246.7z"/>
			<path class="st45" d="M60.3,255.6c0.1-0.3,5.6-14,11.5-20.8c7.7-9,15.9-9.4,15.9-9.4s-11.2,6.8-14.8,10.6"/>
			<path class="st45" d="M148.8,249.3c1.2,1.7,3.6,8.2,7.8,7.1c7.2-2,3.2-14.2,3.2-14.2s0.7,10.5-4.3,11.4
				C152.2,254.2,148.8,249.3,148.8,249.3z"/>
			<path class="st45" d="M141.9,226.6c0,0,12.9,5.1,17.2,4.1c3.5-1,6.7-2.8,9.4-5.3l-6.2-80.5l9.1,81.3c0,0-12.9,12.9-18.3,11.3
				S141.9,226.6,141.9,226.6"/>
			<path class="st45" d="M85.5,291.7c0,0,5.4,18.8,16.7,18.4s34.9-6.8,34.9-6.8s-27.6,11.4-35.5,9.7C87.4,310,85.5,291.7,85.5,291.7
				z"/>
			<path class="st14" d="M76.2,190.7c-0.9-1.1,1.5-11.7,8.8-15s42.8-8.9,45.9-6.2s5.8,15,5.8,15l-0.8,6c-8.7,3-17.6,5.4-26.6,7.4
				C84.9,202.7,76.2,190.7,76.2,190.7z"/>
			<path class="st46" d="M121,179.3c1.1,8-5,15.5-13.6,16.6s-16.5-4.4-17.5-12.4c-0.3-2.5,0-5.1,1.1-7.5c2.1-4.8,23.8-7.7,27.1-3.6
				C119.6,174.4,120.7,176.8,121,179.3z"/>
			<path class="st14" d="M119.8,187.2c-4.6,0.7-8.8-1.9-9.4-5.7s2.7-7.6,7.3-8.3c1.4-0.2,2.9-0.1,4.2,0.3c2.7,0.8,4.2,10.6,1.9,12.2
				C122.5,186.5,121.2,187,119.8,187.2z"/>
			<path class="st14" d="M166.2,178.8l1.5,5.5c0,0,3.7,3.2,13.9,1.9c12.5-1.7,16.1-9.7,16.1-9.7s-1.4-10.2-10.6-8.7
				s-14,1.8-16.8,4.1S166.2,178.8,166.2,178.8z"/>
			<path class="st46" d="M190.6,172.8c0.7,5.1-3.2,9.9-8.7,10.6s-10.5-2.8-11.2-7.9c-0.2-1.6,0-3.3,0.7-4.8c1.3-3,15.2-4.9,17.3-2.3
				C189.7,169.6,190.4,171.1,190.6,172.8z"/>
			<path class="st14" d="M195.7,173.6c-0.2,3.1-2.8,5.5-5.9,5.3c-2.8-0.2-5.1-2.4-5.3-5.3c0-0.9,0.3-1.8,0.7-2.6
				c1-1.6,8.8-1.6,9.8,0C195.5,171.8,195.7,172.7,195.7,173.6z"/>
			<path class="st47" d="M74.6,190.9c0,0,6.2-16.3,12.5-19s44.1-7.8,47.1-6.4s4.1,16.8,4.1,16.8l-2.8,0.4c0,0-1.6-12.2-8.8-12.7
				s-30.2,2.6-38.6,6.4S74.6,190.9,74.6,190.9z"/>
			<path class="st47" d="M166.2,178.8l1,1.8c0,0,1-9,5.1-10s16.1-4,20.3-0.8s5.1,6.7,5.1,6.7s-2.3-10-5.2-10.6s-19.9,2.2-23.5,3.2
				S166.2,178.8,166.2,178.8z"/>
			<path class="st36" d="M31.2,119.5c0,0-16.9-2-30.8,17.8c-3.7,5.3,16.2,44.1,24,54.6S37.8,219.3,38,223l0.5,7.4
				c0,0-1.9-20.5,3.8-38.8c3.6-11.6,11.5-27.5,13.5-35.1C64.1,124.1,31.3,119.5,31.2,119.5"/>
			
				<linearGradient id="SVGID_14_" gradientUnits="userSpaceOnUse" x1="372.9808" y1="43.4289" x2="412.6808" y2="72.8289" gradientTransform="matrix(1 0 0 -1 -360.13 230.57)">
				<stop  offset="0" style="stop-color:#000000"/>
				<stop  offset="0.99" style="stop-color:#000000;stop-opacity:0"/>
			</linearGradient>
			<path class="st48" d="M31.2,119.5c0,0-16.9-2-30.8,17.8c-3.7,5.3,16.2,44.1,24,54.6S37.8,219.3,38,223l0.5,7.4
				c0,0-1.9-20.5,3.8-38.8c3.6-11.6,11.5-27.5,13.5-35.1C64.1,124.1,31.3,119.5,31.2,119.5"/>
			<path class="st14" d="M98.2,277.7l1,18.3c0,0,4.8,9.9,36.9,0.7c39.2-11.2,41.8-24.8,41.8-24.8s-9-0.2-35.7,4.5
				S98.2,277.7,98.2,277.7z"/>
			<path class="st30" d="M20,207.6c10.4-2.2,25.6,18,17,26.6c2.1-8.7-10-15.8-10.5-6.2c-3.3-3.2-0.5-8.7-2.4-12.4
				c-2.2-4.2-7.6-4-7.8,1.6c-1.5-3.5-0.9-9.1,3.7-9.1"/>
			<path class="st29" d="M136.7,228.4c1-0.4,7.9,17.6,12.1,17.5c12.2-0.1,22.7-19.6,22.7-19.6s-10.1,10.1-18.1,4.5
				S136.7,228.4,136.7,228.4z"/>
			<path class="st31" d="M8,135.1c5.1-4.2,19-7.6,25.1-5.1c8.6,3.6,10.2,13.4,9.8,21.8c-0.5,9.7-3.9,19.2-5.7,28.6
				c-2,9.6,1.4,24.1-2,32.6c0.2-16,6.7-31.4,13.5-45.7c4.5-9.5,10.2-20.3,6.1-30.9c-3.2-8.4-12.9-15.8-21.7-16.7
				c-7.5-0.8-25.3,7.9-25.9,15.3"/>
			<path class="st31" d="M46.4,58.9c20.7-28.9,58.2-19.2,87.9-18.9c10.4,0.1,22.8,0.6,30.7-7.2c8.1-8,3.2-20.6-8.2-20.6
				c4.8,1.6,10.3,0.4,13.8,6.3c3.9,6.6-0.5,9.6-4.7,13.7c11.4-4.3,18.6-18.6,9.8-28.4c23.1,4.7,36.5,24.8,38.6,46
				c2.5,26-7,46.7-34.5,58.8c-49.3,21.7-71,5.3-105.3,3.7c12.1-7.7,38.9-2.5,52.4-1.9c14.7,0.6,31.4-2.3,44.6-8.9
				c20.2-10.1,29.4-36.7,24.4-57.3c-1-4.3-1.6-9-2.9-13.1c-5.3,10-9.8,19.3-22.2,22.1c-11.2,2.5-24.4,0.9-35-2.8
				c-24-8.4-44.9-14.8-69.9-7c-5.3,1.6-20.6,9.9-18.9,16"/>
			<path class="st31" d="M202.2,103.6c6.3,5.3,6.8,19.8,5.6,27.3c-1.2,8.1-1.9,18.4-4.3,26.3c2.6-9.5,0.9-20.1-0.7-29.8
				c-1-6.1-4.5-18.9,0-23.8"/>
			<path class="st49" d="M67.9,156.3c16.8-6.5,33.5-14.4,51.2-17.2c0.9,3.3,0.9,7,1.9,10.2c4.7-6,3.7-12.1,12.6-12.6
				c0.5,3.3,0.5,6.5,1.9,9.8c2.8-3.7,2.8-10.7,7-12.1"/>
			<path class="st49" d="M163.3,143.7c1.4,2.8,3.7,5.1,5.1,7.9c0-0.9,0.9-3.3,0.9-5.1c8.8,2.8,19.6,1.4,28,4.6
				c-0.9,1.9-1.4,4.2-2.3,5.6c0.5,1.4,0.5,0,0.5-0.9"/>
			<path class="st20" d="M136.8,187c0.2-6.4,1.8-16.8-6.5-19.1c-8.1-2.3-19.3,2.3-27,4.1c-6.9,1.6-15.8,1.9-20.8,7.1
				c-4.8,5-7.9,12.7,0.9,15.3c1.1,0.3,0.7-14.8,7.3-15.7c-1.4,4.8,0.8,11.2,5.1,13.4c0.5-7-1.4-8.8,6-12.2c4.5-2,9.2-3.5,14.1-4.4
				c4.6-0.9,10-1.1,14,1.3c4.6,2.8,4.4,8.5,7,11.2"/>
			<path class="st20" d="M169.3,171.6c-1.4,2.5-3.6,8.4-2.2,12c2.6,0.8,4.6,2.4,7.4,1.9c-2.2-1.2-3.1-5.8-3.2-8.8
				c1.5,1.8,3.2,5,5.9,5.5c-2.8-7.3-0.1-8.2,7-9.2c4.3-0.6,11.1-0.3,13.9,3.6c-2.7-4.9-4.6-8.7-11.1-8.8c-5.6,0.1-11.1,1.2-16.3,3.3
				"/>
		</g>
	</g>
</g>
</svg>
